<svg width="1276" height="351" viewBox="0 0 1276 351" fill="none" xmlns="http://www.w3.org/2000/svg">
<path d="M52 120.8V80.2H44.2V75.8H65C74.8 75.8 81.8 80.2 84.8 91.8L87 100.4H94.2V42H87L84.8 50.6C81.8 62.4 74.8 66.8 65 66.8H52V16.2H44.2V11.8H81.8C98.8 11.8 108.6 18.6 113.6 35.4L118 50.4H126.2L123.4 2.39999H0V9.2L5.4 9.6C14.4 10.2 18.8 14.8 18.8 24V120.8C18.8 130 14.4 134.6 5.4 135.2L0 135.6V142.4H70.8V135.6L65.4 135.2C56.4 134.6 52 130 52 120.8Z" fill="black"/>
<path d="M147.417 69.4V123.4C147.417 131 144.417 135.2 137.617 135.8L133.017 136.2V142.4H189.817V136.2L185.217 135.8C178.417 135.2 175.417 131 175.417 123.4V76.8C182.817 60.2 193.017 50.8 204.017 52V55.8H201.017C200.017 56.2 199.017 59 199.017 61.2C199.017 67.2 204.417 72.4 211.417 72.4C218.417 72.4 224.417 67.2 224.417 58.6C224.417 49.4 218.017 42 205.417 42C191.217 42 177.417 54 168.817 77.2V67.6C169.617 65.6 174.417 57.2 175.417 55.4V41.2L130.617 53L138.017 56.6C146.017 60.6 147.417 63 147.417 69.4Z" fill="black"/>
<path d="M285.991 131.4C287.391 140 293.791 144.2 304.591 144.2C313.791 144.2 324.391 139 329.191 127.8L328.591 127.4C325.791 130 322.991 130.4 320.791 130.4C316.391 130.4 313.191 127.4 313.191 122.2V76.8C313.191 54.6 300.391 41.8 272.391 41.8C247.791 41.8 229.591 54.2 229.591 69.8C229.591 77.2 234.791 83.2 242.591 83.2C250.791 83.2 256.591 76.8 254.791 64.4H249.991C249.991 58.2 255.191 52.6 267.191 52.6C279.791 52.6 285.391 60.8 285.391 72V84.8L255.791 94.6C238.791 100.2 225.591 105.8 225.591 121.2C225.591 136.2 235.191 144.6 251.791 144.6C266.791 144.6 277.191 136.4 286.991 123.4L292.991 115.4V122.4L285.991 131.4ZM252.191 115.4C252.191 107.2 256.791 102 267.991 98.2L285.391 92.2V117.4C280.591 124.6 273.391 128.8 265.791 128.8C256.991 128.8 252.191 123.8 252.191 115.4Z" fill="black"/>
<path d="M374.217 41.2L329.417 53L335.617 56C344.417 60.2 346.217 62.6 346.217 69.4V114.8C346.217 133 357.217 144.6 375.817 144.6C393.617 144.6 405.217 132.2 413.017 122L417.017 116.8V123.2L409.817 132.4V144.4L454.617 137L447.417 133.4C439.217 129.4 437.817 127 437.817 120.6V41.2L393.017 53L399.217 56C408.017 60.2 409.817 62.6 409.817 69.4V116.8C405.017 124.4 397.817 129.2 389.817 129.2C379.017 129.2 374.217 121.6 374.217 111V41.2Z" fill="black"/>
<path d="M553.389 88.6C554.189 61.6 536.989 41.6 510.789 41.6C480.789 41.6 460.189 66.2 460.189 94.2C460.189 123.4 481.189 144.8 509.989 144.8C527.589 144.8 543.989 133 550.789 113.8L549.189 113C542.989 124.2 532.989 128.2 522.989 128.2C502.589 128.2 491.389 114 489.989 92.8H481.989V88.6H553.389ZM509.989 51.6C521.789 51.6 529.389 64.4 529.389 80.8H489.989C491.389 64.2 497.789 51.6 509.989 51.6Z" fill="black"/>
<path d="M577.105 69.4V123.4C577.105 131.2 573.505 135.2 567.305 135.8L562.705 136.2V142.4H617.905V136.2L613.505 135.8C607.905 135.2 605.105 131 605.105 123.4V69.8C610.305 62.4 617.105 57.6 624.705 57.6C634.705 57.6 640.705 63.8 640.705 75V123.4C640.705 131 637.905 135.2 632.305 135.8L627.905 136.2V142.4H683.305V136.2L678.705 135.8C672.505 135.2 668.705 131 668.705 123.4V71.2C668.705 52.4 657.305 41.4 639.105 41.4C623.505 41.4 611.705 53.2 600.905 66.6L597.905 70V63.6L605.105 54.6V41.2L560.305 53L567.705 56.6C575.705 60.6 577.105 63 577.105 69.4Z" fill="black"/>
<path d="M764.239 144.6C804.839 144.6 837.639 113.2 837.639 71.4C837.639 29.6 805.239 0 765.039 0C724.439 0 691.639 31.2 691.639 73C691.639 114.8 723.839 144.6 764.239 144.6ZM766.439 134.2C742.439 134.2 727.239 108.6 727.239 69.2C727.239 31.2 743.439 10.4 762.439 10.4C786.639 10.4 801.839 36 801.839 75.4C801.839 113.4 785.439 134.2 766.439 134.2Z" fill="black"/>
<path d="M862.066 69.4V123.4C862.066 131 859.066 135.2 852.266 135.8L847.666 136.2V142.4H904.466V136.2L899.866 135.8C893.066 135.2 890.066 131 890.066 123.4V76.8C897.466 60.2 907.666 50.8 918.666 52V55.8H915.666C914.666 56.2 913.666 59 913.666 61.2C913.666 67.2 919.066 72.4 926.066 72.4C933.066 72.4 939.066 67.2 939.066 58.6C939.066 49.4 932.666 42 920.066 42C905.866 42 892.066 54 883.466 77.2V67.6C884.266 65.6 889.066 57.2 890.066 55.4V41.2L845.266 53L852.666 56.6C860.666 60.6 862.066 63 862.066 69.4Z" fill="black"/>
<path d="M976.345 51.6H1016.35V43.8H985.145V3.39999C975.945 21.4 959.145 38.4 938.545 51.6H957.145V117.4C957.145 135 968.145 144 984.345 144C1002.35 144 1013.95 133.6 1018.35 113.8L1017.35 113.4C1013.15 123 1006.75 127.2 998.545 127.2C990.545 127.2 985.145 122 985.145 113.2V55.8H976.345V51.6Z" fill="black"/>
<path d="M1117.26 88.6C1118.06 61.6 1100.86 41.6 1074.66 41.6C1044.66 41.6 1024.06 66.2 1024.06 94.2C1024.06 123.4 1045.06 144.8 1073.86 144.8C1091.46 144.8 1107.86 133 1114.66 113.8L1113.06 113C1106.86 124.2 1096.86 128.2 1086.86 128.2C1066.46 128.2 1055.26 114 1053.86 92.8H1045.86V88.6H1117.26ZM1073.86 51.6C1085.66 51.6 1093.26 64.4 1093.26 80.8H1053.86C1055.26 64.2 1061.66 51.6 1073.86 51.6Z" fill="black"/>
<path d="M132.8 263.8C132.8 246.6 119.2 230.8 91.8 227.8C114.4 223.8 125.4 210.4 125.4 196.4C125.4 175.4 105.6 162.4 75.4 162.4H0V169.2L5.4 169.6C14.8 170.2 18.8 175 18.8 184V280.8C18.8 289.8 14.8 294.6 5.4 295.2L0 295.6V302.4H82C112.6 302.4 132.8 287.6 132.8 263.8ZM62 224.4H52V175.4H44V171.2H61.8C81.4 171.2 92.6 180.6 92.6 197.4C92.6 213.6 81.4 224.4 62 224.4ZM68.4 293.4H44V289.2H52V232.8H68.4C88 232.8 99.4 244.8 99.4 263.6C99.4 282.6 88 293.4 68.4 293.4Z" fill="black"/>
<path d="M157.183 229.4V283.4C157.183 291 154.183 295.2 147.383 295.8L142.783 296.2V302.4H199.583V296.2L194.983 295.8C188.183 295.2 185.183 291 185.183 283.4V236.8C192.583 220.2 202.783 210.8 213.783 212V215.8H210.783C209.783 216.2 208.783 219 208.783 221.2C208.783 227.2 214.183 232.4 221.183 232.4C228.183 232.4 234.183 227.2 234.183 218.6C234.183 209.4 227.783 202 215.183 202C200.983 202 187.183 214 178.583 237.2V227.6C179.383 225.6 184.183 217.2 185.183 215.4V201.2L140.383 213L147.783 216.6C155.783 220.6 157.183 223 157.183 229.4Z" fill="black"/>
<path d="M295.756 291.4C297.156 300 303.556 304.2 314.356 304.2C323.556 304.2 334.156 299 338.956 287.8L338.356 287.4C335.556 290 332.756 290.4 330.556 290.4C326.156 290.4 322.956 287.4 322.956 282.2V236.8C322.956 214.6 310.156 201.8 282.156 201.8C257.556 201.8 239.356 214.2 239.356 229.8C239.356 237.2 244.556 243.2 252.356 243.2C260.556 243.2 266.356 236.8 264.556 224.4H259.756C259.756 218.2 264.956 212.6 276.956 212.6C289.556 212.6 295.156 220.8 295.156 232V244.8L265.556 254.6C248.556 260.2 235.356 265.8 235.356 281.2C235.356 296.2 244.956 304.6 261.556 304.6C276.556 304.6 286.956 296.4 296.756 283.4L302.756 275.4V282.4L295.756 291.4ZM261.956 275.4C261.956 267.2 266.556 262 277.756 258.2L295.156 252.2V277.4C290.356 284.6 283.156 288.8 275.556 288.8C266.756 288.8 261.956 283.8 261.956 275.4Z" fill="black"/>
<path d="M359.136 229.4V283.4C359.136 291.2 355.536 295.2 349.336 295.8L344.736 296.2V302.4H399.936V296.2L395.536 295.8C389.936 295.2 387.136 291 387.136 283.4V229.8C392.336 222.4 399.136 217.6 406.736 217.6C416.736 217.6 422.736 223.8 422.736 235V283.4C422.736 291 419.936 295.2 414.336 295.8L409.936 296.2V302.4H465.336V296.2L460.736 295.8C454.536 295.2 450.736 291 450.736 283.4V231.2C450.736 212.4 439.336 201.4 421.136 201.4C405.536 201.4 393.736 213.2 382.936 226.6L379.936 230V223.6L387.136 214.6V201.2L342.336 213L349.736 216.6C357.736 220.6 359.136 223 359.136 229.4Z" fill="black"/>
<path d="M514.27 304.4C527.47 304.4 537.67 296 548.27 281.6L551.47 277.4L552.27 276.6V283.4L545.07 292.6V304.6L589.87 297.2L582.67 293.6C574.47 289.6 573.07 287.2 573.07 280.8V155.4L528.27 166L534.47 169C543.27 173.4 545.07 175.8 545.07 182.2V202.8C541.07 202 536.87 201.6 532.07 201.6C498.47 201.6 473.87 224.8 473.87 257.8C473.87 285.6 490.87 304.4 514.27 304.4ZM501.87 250.4C501.87 226.6 513.07 210.4 529.27 210.4C535.07 210.4 540.47 212.2 545.07 215.4V277C540.27 284.2 532.67 288.8 525.87 288.8C511.87 288.8 501.87 272.6 501.87 250.4Z" fill="black"/>
<path d="M689.912 248.6C690.712 221.6 673.513 201.6 647.312 201.6C617.313 201.6 596.713 226.2 596.713 254.2C596.713 283.4 617.713 304.8 646.513 304.8C664.113 304.8 680.512 293 687.312 273.8L685.713 273C679.513 284.2 669.513 288.2 659.513 288.2C639.113 288.2 627.913 274 626.513 252.8H618.513V248.6H689.912ZM646.513 211.6C658.313 211.6 665.912 224.4 665.912 240.8H626.513C627.913 224.2 634.313 211.6 646.513 211.6Z" fill="black"/>
<path d="M713.628 229.4V283.4C713.628 291.2 710.028 295.2 703.828 295.8L699.228 296.2V302.4H754.428V296.2L750.028 295.8C744.428 295.2 741.628 291 741.628 283.4V229.8C746.828 222.4 753.628 217.6 761.228 217.6C771.228 217.6 777.228 223.8 777.228 235V283.4C777.228 291 774.428 295.2 768.828 295.8L764.428 296.2V302.4H819.828V296.2L815.228 295.8C809.028 295.2 805.228 291 805.228 283.4V231.2C805.228 212.4 793.828 201.4 775.628 201.4C760.028 201.4 748.228 213.2 737.428 226.6L734.428 230V223.6L741.628 214.6V201.2L696.828 213L704.228 216.6C712.228 220.6 713.628 223 713.628 229.4Z" fill="black"/>
<path d="M937.562 247.2C937.562 220 920.562 201.4 897.162 201.4C886.962 201.4 876.563 204.2 863.963 220.8L859.162 227.2V220.2L866.362 210.4V155.2L821.562 165.8L827.763 168.8C836.563 173.2 838.362 175.6 838.362 182V304L853.562 299C860.963 302.8 869.762 304.2 879.362 304.2C912.962 304.2 937.562 280.8 937.562 247.2ZM885.362 216.8C900.962 216.8 909.562 232.4 909.562 254C909.562 278.4 898.562 295 882.362 295C876.762 295 871.562 293.2 866.362 289.2V227C871.162 220.8 878.962 216.8 885.362 216.8Z" fill="black"/>
<path d="M986.912 201.2L942.112 213L948.312 216C957.113 220.2 958.912 222.6 958.912 229.4V274.8C958.912 293 969.913 304.6 988.513 304.6C1006.31 304.6 1017.91 292.2 1025.71 282L1029.71 276.8V283.2L1022.51 292.4V304.4L1067.31 297L1060.11 293.4C1051.91 289.4 1050.51 287 1050.51 280.6V201.2L1005.71 213L1011.91 216C1020.71 220.2 1022.51 222.6 1022.51 229.4V276.8C1017.71 284.4 1010.51 289.2 1002.51 289.2C991.713 289.2 986.912 281.6 986.912 271V201.2Z" fill="black"/>
<path d="M1086.28 229.4V283.4C1086.28 291 1083.28 295.2 1076.48 295.8L1071.88 296.2V302.4H1128.68V296.2L1124.08 295.8C1117.28 295.2 1114.28 291 1114.28 283.4V236.8C1121.68 220.2 1131.88 210.8 1142.88 212V215.8H1139.88C1138.88 216.2 1137.88 219 1137.88 221.2C1137.88 227.2 1143.28 232.4 1150.28 232.4C1157.28 232.4 1163.28 227.2 1163.28 218.6C1163.28 209.4 1156.88 202 1144.28 202C1130.08 202 1116.28 214 1107.68 237.2V227.6C1108.48 225.6 1113.28 217.2 1114.28 215.4V201.2L1069.48 213L1076.88 216.6C1084.88 220.6 1086.28 223 1086.28 229.4Z" fill="black"/>
<path d="M1209.86 350.6C1258.26 350.6 1267.46 329.4 1267.46 317C1267.46 301.2 1257.26 293.6 1240.26 292.2L1201.86 289.2C1192.26 288.4 1190.46 285.4 1190.46 281.8C1190.46 279.2 1193.26 275.6 1199.66 273C1203.46 273.8 1207.66 274 1212.06 274C1236.26 274 1256.66 257.8 1256.66 237.2C1256.66 224.4 1249.06 213.8 1237.06 207.6C1245.06 199.8 1251.06 197.2 1257.66 197.8V201.4H1254.66C1251.46 209.2 1258.26 215.2 1264.86 215.2C1270.86 215.2 1275.86 210.4 1275.86 203.6C1275.86 197 1270.46 189.4 1258.86 189.4C1247.66 189.4 1238.66 196 1230.86 205C1225.26 203 1218.86 201.8 1212.06 201.8C1187.86 201.8 1167.46 218 1167.46 238.6C1167.46 251.4 1175.06 261.8 1186.46 267.8L1195.06 264.8L1199.46 267.2C1187.46 271.2 1170.06 280.2 1170.06 294C1170.06 299.2 1171.86 304 1175.86 307.6L1185.26 303.8L1189.46 305.6L1179.66 309.6C1168.66 314.2 1158.66 318 1158.66 327.2C1158.66 340 1173.66 350.6 1209.86 350.6ZM1212.66 264.6C1202.66 264.6 1195.26 254 1195.26 237.2C1195.26 219.6 1202.46 211.2 1211.46 211.2C1223.46 211.2 1228.86 224 1228.86 238.8C1228.86 257 1221.06 264.6 1212.66 264.6ZM1214.26 342.2C1189.66 342.2 1180.66 333.2 1180.66 325C1180.66 319.4 1184.26 315.4 1188.26 312.8L1234.66 316.2C1242.26 316.8 1246.06 319.6 1246.06 326C1246.06 331.4 1242.26 342.2 1214.26 342.2Z" fill="black"/>
</svg>
